<?xml version="1.0" encoding="UTF-8" standalone="no"?>
<!-- Created with Inkscape (http://www.inkscape.org/) -->
<svg xmlns:rdf="http://www.w3.org/1999/02/22-rdf-syntax-ns#" xmlns="http://www.w3.org/2000/svg" height="64" width="64" version="1.1" xmlns:cc="http://creativecommons.org/ns#" xmlns:xlink="http://www.w3.org/1999/xlink" xmlns:dc="http://purl.org/dc/elements/1.1/">
	<defs>
		<linearGradient id="linearGradient3069" y2="15.871109" gradientUnits="userSpaceOnUse" x2="44" y1="61.621109" x1="27.830357">
			<stop stop-color="#4e8cde" offset="0"/>
			<stop stop-color="#1a4a8a" offset="1"/>
		</linearGradient>
		<linearGradient id="linearGradient3071" y2="69.568581" gradientUnits="userSpaceOnUse" x2="60.240128" gradientTransform="translate(-44.75,-34.5)" y1="69.568581" x1="53.227654">
			<stop stop-color="#0d4511" offset="0"/>
			<stop stop-color="#2b2e32" offset="1"/>
		</linearGradient>
		<linearGradient id="linearGradient3073" y2="36.751961" spreadMethod="reflect" gradientUnits="userSpaceOnUse" x2="6.25" gradientTransform="matrix(1.2159306,0,0,1.0102681,-0.1727795,0.30371026)" y1="36.751961" x1="2.75">
			<stop stop-color="#0d4511" stop-opacity="0" offset="0"/>
			<stop stop-color="#3b7846" offset="0.5"/>
			<stop stop-color="#2b2e32" stop-opacity="0" offset="1"/>
		</linearGradient>
	</defs>
	<metadata>
		<rdf:RDF>
			<cc:Work rdf:about="">
				<dc:format>image/svg+xml</dc:format>
				<dc:type rdf:resource="http://purl.org/dc/dcmitype/StillImage"/>
				<dc:title/>
			</cc:Work>
		</rdf:RDF>
	</metadata>
	<g transform="matrix(0.86271,0,0,0.86271,11.075113,6.2007631)">
		<g transform="translate(-1.7454715,-5.1250002)">
			<path stroke-linejoin="round" d="m13.745472,2.628904,38.73113,0,0,7.263147-38.73113-0.3767985z" stroke="#000" stroke-linecap="butt" stroke-miterlimit="4" stroke-dasharray="none" stroke-width="0.5" fill="#6a6a6a"/>
			<path stroke-linejoin="round" d="m14.267857,8.130038,38.982143,0,0,59.732142-38.982143,0z" stroke="#000" stroke-linecap="butt" stroke-miterlimit="4" stroke-dasharray="none" stroke-width="0.5" fill="url(#linearGradient3069)"/>
			<path stroke-linejoin="miter" d="m14.267857,8.130038,0,59.732142h-8.017857c-1.856508,0-3.173811-1.00462-3.232143-3.983531-0.05833-2.978911,0-54.764472,0-56.998612s0.44592-4.251133,3.482143-4.251133,7.245472-0.017943,7.245472-0.017943v3.717023z" fill-rule="nonzero" stroke="#000" stroke-linecap="butt" stroke-miterlimit="4" stroke-dasharray="none" stroke-width="0.5" fill="url(#linearGradient3071)"/>
			<path d="m13.474215,2.9014508,0.038,2.2235494-8.8383899,2.4951824c-2.1275696-2.3576873-1.2941772-4.7546174,1.905132-4.7546174z" fill="#6a6a6a"/>
			<path stroke-linejoin="miter" d="M3.5579715,4.1328127c-0.3761446,1.3046421,0.1037679,2.3093663,0.7682385,3.0610922" stroke="#000" stroke-linecap="butt" stroke-miterlimit="4" stroke-dasharray="none" stroke-width="0.30000001" fill="none"/>
			<path d="M3.416418,5.9765625c0.8534396,2.2639602,2.3729415,2.0461346,3.7063857,2.1796875v59.44421h-1.0501357c-1.8047126-0.019461-2.6605101-1.295075-2.5976562-2.811397z" fill="url(#linearGradient3073)"/>
			<g transform="matrix(1.0046105,0,0,1.0046105,-0.27595062,-0.07340528)">
				<path d="m5.736136,3.862183,45.13829,0,0.531824,4.167969-44.598192,0c-3.978828-0.01037-2.859334-4.185323-1.071922-4.167969z" fill="#FFF"/>
				<path stroke-linejoin="miter" d="M4.1724926,5.7458292c0.115782-0.9923017,0.5540358-1.4553303,1.8212952-1.4599608h44.9165912" stroke="#cacaca" stroke-linecap="butt" stroke-miterlimit="4" stroke-dasharray="none" stroke-width="0.30000001" fill="none"/>
				<path stroke-linejoin="miter" d="M4.1724516,5.7458292c0.5259177-0.1738716,0.1257377-0.4708574,1.8213362-0.4730486h45.0139292" stroke="#cacaca" stroke-linecap="butt" stroke-miterlimit="4" stroke-dasharray="none" stroke-width="0.30000001" fill="none"/>
				<path stroke-linejoin="miter" d="m4.1818163,5.7458292c0.3125089,0.3010009,0.6076755,0.4220202,1.8119715,0.4513641h45.1909022" stroke="#cacaca" stroke-linecap="butt" stroke-miterlimit="4" stroke-dasharray="none" stroke-width="0.30000001" fill="none"/>
				<path stroke-linejoin="miter" d="M4.1785787,5.6964552c0.5723232,0.4907544-0.2960686,1.3504723,1.8152091,1.4471041h45.2791662" stroke="#cacaca" stroke-linecap="butt" stroke-miterlimit="4" stroke-dasharray="none" stroke-width="0.30000001" fill="none"/>
				<path stroke-linejoin="miter" d="M4.1866957,5.7458292c0.153763-0.6601761,0.7466633-0.9581705,1.8070921-0.9848732h44.9791982" stroke="#cacaca" stroke-linecap="butt" stroke-miterlimit="4" stroke-dasharray="none" stroke-width="0.30000001" fill="none"/>
				<path stroke-linejoin="miter" d="m4.096806,5.7458292,46.992835,0" stroke="#cacaca" stroke-linecap="butt" stroke-miterlimit="4" stroke-dasharray="none" stroke-width="0.30000001" fill="none"/>
				<path stroke-linejoin="miter" d="m4.1157934,5.7821255c0.2791127,0.3975883,0.428765,0.8350106,1.8779944,0.872563h45.2495312" stroke="#cacaca" stroke-linecap="butt" stroke-miterlimit="4" stroke-dasharray="none" stroke-width="0.30000001" fill="none"/>
				<path stroke-linejoin="miter" d="m4.1395004,5.7458292c0.1277314,0.8418192,0.021755,1.7943423,1.8542874,1.8286241h45.3338552" stroke="#cacaca" stroke-linecap="butt" stroke-miterlimit="4" stroke-dasharray="none" stroke-width="0.29882503" fill="none"/>
				<path stroke-linejoin="miter" d="m5.736136,3.862183,45.13829,0,0.531824,4.167969-44.598192,0c-3.978828-0.01037-2.859334-4.185323-1.071922-4.167969z" stroke="#000" stroke-linecap="butt" stroke-miterlimit="4" stroke-dasharray="none" stroke-width="0.2986232" fill="none"/>
			</g>
		</g>
		<path stroke-linejoin="miter" d="m36.880769,1.7073911-2.117382,0.00552c-0.03361-0.6702756,0.07733-1.28469795,0.512444-1.28370985l1.322468,0.028663z" fill-rule="nonzero" stroke="#000" stroke-miterlimit="4" stroke-dasharray="none" stroke-width="0.5" fill="#8b0000"/>
		<path stroke-linejoin="round" d="m35.400862,0.42671155,8.899622,0c0.440644,0.97674715,0.404588,1.63255415,0.445352,2.27262885v35.3195036l-4.449811-6.65625-4.449811,6.65625v-35.3195036c0.022549-1.0629571-0.120056-1.6351938-0.445352-2.27262885z" fill-rule="nonzero" stroke="#000" stroke-miterlimit="4" stroke-dasharray="none" stroke-width="0.5" fill="#8b0000"/>
	</g>
</svg>
