<?xml version="1.0" encoding="UTF-8" standalone="no"?>
<!-- Created with Inkscape (http://www.inkscape.org/) -->

<svg
   xmlns:dc="http://purl.org/dc/elements/1.1/"
   xmlns:cc="http://creativecommons.org/ns#"
   xmlns:rdf="http://www.w3.org/1999/02/22-rdf-syntax-ns#"
   xmlns:svg="http://www.w3.org/2000/svg"
   xmlns="http://www.w3.org/2000/svg"
   xmlns:xlink="http://www.w3.org/1999/xlink"
   xmlns:sodipodi="http://sodipodi.sourceforge.net/DTD/sodipodi-0.dtd"
   xmlns:inkscape="http://www.inkscape.org/namespaces/inkscape"
   width="66"
   height="66"
   id="svg2"
   version="1.1"
   inkscape:version="0.48.3.1 r9886"
   sodipodi:docname="application-x-fictionbook+xml.svg">
  <defs
     id="defs4">
    <linearGradient
       id="linearGradient3931">
      <stop
         style="stop-color:#ffffff;stop-opacity:0.61038959;"
         offset="0"
         id="stop3933" />
      <stop
         style="stop-color:#747474;stop-opacity:0.45454547;"
         offset="1"
         id="stop3935" />
    </linearGradient>
    <linearGradient
       x1="25.058001"
       y1="47.028"
       x2="25.058001"
       gradientUnits="userSpaceOnUse"
       y2="39.999001"
       id="linearGradient2092">
      <stop
         offset="0"
         stop-opacity="0"
         id="stop3704" />
      <stop
         offset=".5"
         id="stop3710" />
      <stop
         offset="1"
         stop-opacity="0"
         id="stop3706" />
    </linearGradient>
    <radialGradient
       r="2.5"
       gradientTransform="matrix(2.0038,0,0,1.4,-20.012,-104.4)"
       cx="4.993"
       cy="43.5"
       gradientUnits="userSpaceOnUse"
       xlink:href="#linearGradient3688"
       id="radialGradient2090" />
    <radialGradient
       r="2.5"
       gradientTransform="matrix(2.0038,0,0,1.4,27.988,-17.4)"
       cx="4.993"
       cy="43.5"
       gradientUnits="userSpaceOnUse"
       xlink:href="#linearGradient3688"
       id="radialGradient2088" />
    <linearGradient
       id="linearGradient3688">
      <stop
         offset="0"
         id="stop3690" />
      <stop
         offset="1"
         stop-opacity="0"
         id="stop3692" />
    </linearGradient>
    <radialGradient
       r="4.2929001"
       gradientTransform="matrix(1.7447,0,0,1.2838,-26.583,-3.4784)"
       cx="37.029999"
       cy="12.989"
       gradientUnits="userSpaceOnUse"
       id="radialGradient4796">
      <stop
         offset="0"
         id="stop4792" />
      <stop
         offset="1"
         stop-opacity="0"
         id="stop4794" />
    </radialGradient>
    <radialGradient
       r="86.708"
       gradientTransform="matrix(0.14836,0.010091,-0.011044,0.16236,25.06,12.817)"
       cx="30.653999"
       cy="14.937"
       gradientUnits="userSpaceOnUse"
       xlink:href="#linearGradient259"
       id="radialGradient5352" />
    <radialGradient
       r="37.751999"
       gradientTransform="matrix(0.33174,0,0,0.35383,20.105,9.5823)"
       cx="31.863001"
       cy="2.3666999"
       gradientUnits="userSpaceOnUse"
       xlink:href="#linearGradient269"
       id="radialGradient5350" />
    <radialGradient
       r="38.159"
       gradientTransform="matrix(0.96827,0,0,1.0328,3.3536,0.64645)"
       cx="8.1436005"
       cy="7.2679"
       gradientUnits="userSpaceOnUse"
       id="radialGradient15668">
      <stop
         offset="0"
         stop-color="#fff"
         id="stop15664" />
      <stop
         offset="1"
         stop-color="#f8f8f8"
         id="stop15666" />
    </radialGradient>
    <radialGradient
       r="86.708"
       gradientTransform="scale(0.96049,1.0411)"
       cx="33.966999"
       cy="35.737"
       gradientUnits="userSpaceOnUse"
       xlink:href="#linearGradient259"
       id="radialGradient15658" />
    <radialGradient
       r="37.751999"
       gradientTransform="matrix(0.96827,0,0,1.0328,3.3536,0.64645)"
       cx="8.8243999"
       cy="3.7560999"
       gradientUnits="userSpaceOnUse"
       xlink:href="#linearGradient269"
       id="radialGradient15656" />
    <linearGradient
       id="linearGradient259">
      <stop
         offset="0"
         stop-color="#fafafa"
         id="stop260" />
      <stop
         offset="1"
         stop-color="#bbb"
         id="stop261" />
    </linearGradient>
    <linearGradient
       id="linearGradient269">
      <stop
         offset="0"
         stop-color="#a3a3a3"
         id="stop270" />
      <stop
         offset="1"
         stop-color="#8a8a8a"
         id="stop271" />
    </linearGradient>
    <linearGradient
       x1="33.396"
       y1="36.921001"
       gradientTransform="matrix(-0.032779,-0.99946,0.99946,-0.032779,-0.70965,45.063)"
       x2="34.169998"
       gradientUnits="userSpaceOnUse"
       y2="38.07"
       id="linearGradient8166">
      <stop
         offset="0"
         stop-color="#fff"
         id="stop2253" />
      <stop
         offset="1"
         stop-opacity="0"
         stop-color="#fff"
         id="stop2255" />
    </linearGradient>
    <radialGradient
       r="12.289"
       gradientTransform="scale(1.644,0.60828)"
       cx="15.116"
       cy="63.965"
       gradientUnits="userSpaceOnUse"
       id="radialGradient24190">
      <stop
         offset="0"
         id="stop4116" />
      <stop
         offset="1"
         stop-opacity="0"
         id="stop4118" />
    </radialGradient>
    <linearGradient
       x1="119.19"
       y1="89.129997"
       gradientTransform="matrix(0.21718,0,0,0.21718,52.213,9.1432)"
       x2="116.97"
       gradientUnits="userSpaceOnUse"
       y2="169.28"
       id="linearGradient3558">
      <stop
         offset="0"
         stop-color="#ffe253"
         id="stop4078" />
      <stop
         offset="1"
         stop-color="#ffca1c"
         id="stop4080" />
    </linearGradient>
    <linearGradient
       x1="94.693001"
       y1="112.51"
       gradientTransform="matrix(0.21718,0,0,0.21718,58.407,15.312)"
       x2="94.693001"
       gradientUnits="userSpaceOnUse"
       xlink:href="#linearGradient4126"
       y2="64.053001"
       id="linearGradient3560" />
    <linearGradient
       id="linearGradient4126">
      <stop
         offset="0"
         stop-color="#fff"
         id="stop4128" />
      <stop
         offset="1"
         stop-opacity=".16495"
         stop-color="#fff"
         id="stop4130" />
    </linearGradient>
    <linearGradient
       x1="59.729"
       y1="102"
       gradientTransform="matrix(0.21718,0,0,0.21718,51.567,-11.58)"
       x2="142.62"
       gradientUnits="userSpaceOnUse"
       y2="102"
       id="linearGradient3562">
      <stop
         offset="0"
         stop-color="#3778ae"
         id="stop4094" />
      <stop
         offset="1"
         stop-color="#366c99"
         id="stop4096" />
    </linearGradient>
    <linearGradient
       x1="94.693001"
       y1="112.51"
       gradientTransform="matrix(0.21718,0,0,0.21718,51.567,-11.58)"
       x2="94.693001"
       gradientUnits="userSpaceOnUse"
       xlink:href="#linearGradient4126"
       y2="64.053001"
       id="linearGradient3564" />
  </defs>
  <sodipodi:namedview
     id="base"
     pagecolor="#ffffff"
     bordercolor="#666666"
     borderopacity="1.0"
     inkscape:pageopacity="0.0"
     inkscape:pageshadow="2"
     inkscape:zoom="22.627416"
     inkscape:cx="39.315316"
     inkscape:cy="35.877261"
     inkscape:document-units="px"
     inkscape:current-layer="g3057"
     showgrid="false"
     fit-margin-top="1"
     fit-margin-left="1"
     fit-margin-right="1"
     fit-margin-bottom="1"
     inkscape:showpageshadow="false"
     inkscape:window-width="1920"
     inkscape:window-height="1021"
     inkscape:window-x="0"
     inkscape:window-y="27"
     inkscape:window-maximized="1" />
  <metadata
     id="metadata7">
    <rdf:RDF>
      <cc:Work
         rdf:about="">
        <dc:format>image/svg+xml</dc:format>
        <dc:type
           rdf:resource="http://purl.org/dc/dcmitype/StillImage" />
        <dc:title />
      </cc:Work>
    </rdf:RDF>
  </metadata>
  <g
     inkscape:label="Layer 1"
     inkscape:groupmode="layer"
     id="layer1"
     transform="translate(-529.85521,-493.9575)">
    <g
       id="g3116"
       transform="translate(519.85541,518.22534)">
      <g
         id="layer1-9"
         style="stroke-linecap:round;stroke-linejoin:round" />
      <g
         id="g3048"
         transform="translate(0.12931964,-5.9999968)">
        <g
           id="g3071"
           transform="translate(4.6920385,-10.5)">
          <rect
             style="fill:#293134;fill-opacity:1;fill-rule:nonzero;stroke:#868686;stroke-linejoin:miter;stroke-opacity:1"
             id="rect3161"
             width="40"
             height="40"
             x="18.178442"
             y="5.2321568"
             ry="2.1015625" />
          <g
             id="g3062"
             transform="translate(6.671694,-1)">
            <g
               id="g3039"
               transform="translate(5.7452426,0.90637857)">
              <g
                 id="g3057">
                <rect
                   transform="matrix(0.70710678,0.70710678,-0.70710678,0.70710678,0,0)"
                   ry="2.629564"
                   y="-23.386572"
                   x="41.1968"
                   height="18.005831"
                   width="18.005831"
                   id="rect5424"
                   style="fill:#c78300;fill-opacity:1;stroke:#868686;stroke-width:0.85716861;stroke-linejoin:miter;stroke-miterlimit:4;stroke-opacity:1;stroke-dasharray:none" />
                <g
                   style="font-size:40px;font-style:normal;font-variant:normal;font-weight:normal;font-stretch:normal;line-height:125%;letter-spacing:0px;word-spacing:0px;fill:#e8e2b7;fill-opacity:1;stroke:#000000;stroke-width:0.05;stroke-miterlimit:4;stroke-opacity:1;font-family:DejaVu Sans Mono;-inkscape-font-specification:DejaVu Sans Mono"
                   id="text3035"
                   transform="translate(0,-0.57452429)">
                  <path
                     d="m 44.153667,30.208591 6.142579,0 0,2.539063 -9.257813,0 0,-2.460938 1.5625,-1.660156 c 1.855464,-1.97265 2.981765,-3.186841 3.378906,-3.642578 0.488275,-0.559887 0.839837,-1.054679 1.054688,-1.484375 0.214836,-0.436188 0.322258,-0.865875 0.322265,-1.289062 -7e-6,-0.651031 -0.198575,-1.152332 -0.595703,-1.503907 -0.390631,-0.35806 -0.947271,-0.537096 -1.669922,-0.537109 -0.514327,1.3e-5 -1.093754,0.104179 -1.738281,0.3125 -0.638023,0.201835 -1.30534,0.498059 -2.001953,0.888672 l 0,-2.685547 c 0.696613,-0.253892 1.37695,-0.445949 2.041016,-0.576172 0.670568,-0.136704 1.311844,-0.205063 1.923828,-0.205078 1.542962,1.5e-5 2.753898,0.361343 3.632812,1.083984 0.885407,0.716159 1.328115,1.695976 1.328125,2.939453 -10e-6,0.572927 -0.09767,1.110036 -0.292968,1.611329 -0.188812,0.50131 -0.517588,1.05795 -0.986329,1.669921 -0.34506,0.442716 -1.292325,1.438809 -2.841796,2.988282 -0.83985,0.839847 -1.507167,1.510419 -2.001954,2.011718"
                     style="font-size:20px;font-weight:bold;fill:#e8e2b7;stroke:#000000;font-family:DejaVu Sans Mono;-inkscape-font-specification:DejaVu Sans Mono Bold"
                     id="path3046"
                     inkscape:connector-curvature="0" />
                </g>
              </g>
            </g>
            <g
               style="font-size:28px;font-style:normal;font-variant:normal;font-weight:normal;font-stretch:normal;line-height:125%;letter-spacing:0px;word-spacing:0px;fill:#e8e2b7;fill-opacity:1;stroke:#000000;stroke-width:0.05;stroke-miterlimit:4;stroke-opacity:1;font-family:DejaVu Sans Mono;-inkscape-font-specification:DejaVu Sans Mono"
               id="text3939">
              <path
                 d="m 26.927683,19.594463 -8.681641,0 0,4.402344 7.902344,0 0,3.554688 -7.902344,0 0,8.90039 -4.033203,0 0,-20.412109 12.714844,0 0,3.554687"
                 style="font-weight:bold;fill:#e8e2b7;stroke:#000000;font-family:DejaVu Sans Mono;-inkscape-font-specification:DejaVu Sans Mono Bold"
                 id="path3041" />
              <path
                 d="m 34.173777,27.182354 0,6.042969 2.679687,0 c 1.285147,3e-6 2.182932,-0.218747 2.69336,-0.65625 0.519519,-0.437496 0.779285,-1.198563 0.779296,-2.283203 -1.1e-5,-1.102858 -0.268891,-1.895826 -0.80664,-2.378907 -0.537771,-0.483064 -1.426442,-0.7246 -2.666016,-0.724609 l -2.679687,0 m 0,-7.957031 0,4.74414 2.679687,0 c 1.020824,1.3e-5 1.745433,-0.182279 2.173828,-0.546875 0.437489,-0.36457 0.656239,-0.966131 0.65625,-1.804687 -1.1e-5,-0.838526 -0.223318,-1.444645 -0.669922,-1.81836 -0.43751,-0.382795 -1.157561,-0.574201 -2.160156,-0.574218 l -2.679687,0 m -3.896485,-3.212891 6.576172,0 c 2.269521,2.1e-5 3.973946,0.432963 5.113281,1.298828 1.148423,0.856789 1.722642,2.141944 1.722657,3.855469 -1.5e-5,1.312514 -0.337255,2.337904 -1.011719,3.076172 -0.674493,0.738293 -1.663424,1.166678 -2.966797,1.285156 1.558581,0.154959 2.729804,0.679047 3.513672,1.572266 0.792953,0.893237 1.189437,2.141934 1.189453,3.746093 -1.6e-5,1.968754 -0.592463,3.395185 -1.777344,4.279297 -1.184908,0.884115 -3.112641,1.326172 -5.783203,1.326172 l -6.576172,0 0,-20.439453"
                 style="font-weight:bold;fill:#e8e2b7;stroke:#000000;font-family:DejaVu Sans Mono;-inkscape-font-specification:DejaVu Sans Mono Bold"
                 id="path3043" />
            </g>
          </g>
        </g>
      </g>
    </g>
  </g>
</svg>
